<svg width="152" height="152" viewBox="0 0 152 152" fill="none" xmlns="http://www.w3.org/2000/svg">
<path d="M127.547 0.524414H23.843C10.8261 0.524414 0.273926 11.0766 0.273926 24.0934V127.797C0.273926 140.814 10.8261 151.366 23.843 151.366H127.547C140.563 151.366 151.116 140.814 151.116 127.797V24.0934C151.116 11.0766 140.563 0.524414 127.547 0.524414Z" fill="#BF94E8"/>
<g clip-path="url(#clip0_15_547)">
<path d="M48.0122 35.4407H109.934V40.3277H48.0122V35.4407Z" fill="white"/>
<path d="M113.374 44.2688H47.5307C46.6528 44.2574 45.7865 44.0831 44.9841 43.7566C44.1817 43.43 43.4597 42.9578 42.8618 42.3686C42.2639 41.7793 41.8024 41.0852 41.5051 40.328C41.2078 39.5708 41.081 38.7663 41.1322 37.963C41.1279 36.3644 41.7863 34.8239 42.9742 33.6532C44.162 32.4826 45.7907 31.7691 47.5307 31.6572L113.374 31.6572C114.286 31.6572 115.161 31.325 115.806 30.7338C116.451 30.1425 116.814 29.3405 116.814 28.5043C116.814 27.6681 116.451 26.8662 115.806 26.2749C115.161 25.6836 114.286 25.3514 113.374 25.3514L47.5307 25.3514C43.9654 25.4659 40.5879 26.8449 38.1106 29.1978C35.6333 31.5506 34.2498 34.6933 34.252 37.963C34.2187 38.4775 34.2187 38.9934 34.252 39.5079C34.2189 39.7592 34.2189 40.0133 34.252 40.2646L34.252 113.632C34.2498 116.902 35.6333 120.045 38.1106 122.398C40.5879 124.751 43.9654 126.13 47.5307 126.244H113.374C114.286 126.244 115.161 125.912 115.806 125.321C116.451 124.729 116.814 123.927 116.814 123.091V47.6424C116.816 46.7846 116.461 45.9584 115.822 45.3317C115.183 44.705 114.308 44.3249 113.374 44.2688Z" fill="black"/>
</g>
<defs>
<clipPath id="clip0_15_547">
<rect width="123.843" height="113.504" fill="white" transform="translate(13.6113 19.0457)"/>
</clipPath>
</defs>
</svg>